<svg width="500" height="152" viewBox="0 0 500 152" fill="none" xmlns="http://www.w3.org/2000/svg">
<g clip-path="url(#clip0_615_638)">
<path fill-rule="evenodd" clip-rule="evenodd" d="M175 151H203V115.5H294V151H322.5V20C322.5 17.8333 321.9 12.8 319.5 10C317.1 7.2 313.5 5.16667 312 4.5C311.5 4.33333 310.1 4 308.5 4H245.5C242 4.16667 233.8 4.9 229 6.5C228.051 6.81637 227.002 7.09521 225.841 7.4038C219.661 9.04604 210.311 11.531 196 25C183.297 36.9555 178.184 55.8029 176.75 61.0898C176.649 61.4633 176.566 61.7691 176.5 62C176 64.1667 175 69.3 175 72.5V151ZM203 87L294 87.5V31H244C236.5 31 222.497 35.6462 213 46.5C206 54.5 203 62.2604 203 69V87Z" fill="#5C6689"/>
<path d="M203 151V151.5H203.5V151H203ZM175 151H174.5V151.5H175V151ZM203 115.5V115H202.5V115.5H203ZM294 115.5H294.5V115H294V115.5ZM294 151H293.5V151.5H294V151ZM322.5 151V151.5H323V151H322.5ZM319.5 10L319.88 9.6746L319.88 9.6746L319.5 10ZM312 4.5L312.203 4.04309L312.181 4.03329L312.158 4.02566L312 4.5ZM245.5 4V3.5H245.488L245.476 3.50057L245.5 4ZM229 6.5L229.158 6.97434L229.158 6.97434L229 6.5ZM225.841 7.4038L225.969 7.88703L225.969 7.88703L225.841 7.4038ZM196 25L196.343 25.3641L196.343 25.3641L196 25ZM176.75 61.0898L176.268 60.9589L176.268 60.9589L176.75 61.0898ZM176.5 62L176.019 61.8626L176.016 61.875L176.013 61.8876L176.5 62ZM294 87.5L293.997 88L294.5 88.0028V87.5H294ZM203 87H202.5V87.4973L202.997 87.5L203 87ZM294 31H294.5V30.5H294V31ZM213 46.5L212.624 46.1707L212.624 46.1707L213 46.5ZM203 150.5H175V151.5H203V150.5ZM202.5 115.5V151H203.5V115.5H202.5ZM294 115H203V116H294V115ZM294.5 151V115.5H293.5V151H294.5ZM322.5 150.5H294V151.5H322.5V150.5ZM322 20V151H323V20H322ZM319.12 10.3254C320.246 11.6382 320.972 13.5076 321.414 15.3539C321.854 17.1926 322 18.9533 322 20H323C323 18.88 322.846 17.0408 322.386 15.1211C321.928 13.2091 321.154 11.1618 319.88 9.6746L319.12 10.3254ZM311.797 4.95691C313.259 5.60677 316.786 7.60237 319.12 10.3254L319.88 9.6746C317.414 6.79763 313.741 4.72656 312.203 4.04309L311.797 4.95691ZM308.5 4.5C310.041 4.5 311.388 4.82301 311.842 4.97434L312.158 4.02566C311.612 3.84365 310.159 3.5 308.5 3.5V4.5ZM245.5 4.5H308.5V3.5H245.5V4.5ZM229.158 6.97434C233.887 5.39812 242.026 4.66601 245.524 4.49943L245.476 3.50057C241.974 3.66732 233.713 4.40188 228.842 6.02566L229.158 6.97434ZM225.969 7.88703C227.126 7.57944 228.191 7.29657 229.158 6.97434L228.842 6.02566C227.91 6.33618 226.877 6.61097 225.712 6.92058L225.969 7.88703ZM196.343 25.3641C203.469 18.6568 209.347 14.6975 214.198 12.2118C219.047 9.72726 222.886 8.70639 225.969 7.88703L225.712 6.92058C222.616 7.74346 218.69 8.78617 213.742 11.3219C208.795 13.8565 202.842 17.8741 195.657 24.6359L196.343 25.3641ZM177.233 61.2207C178.67 55.9232 183.756 37.2107 196.343 25.3641L195.657 24.6359C182.839 36.7002 177.699 55.6826 176.268 60.9589L177.233 61.2207ZM176.981 62.1374C177.048 61.9025 177.132 61.5928 177.233 61.2207L176.268 60.9589C176.166 61.3337 176.084 61.6357 176.019 61.8626L176.981 62.1374ZM175.5 72.5C175.5 69.3621 176.488 64.2776 176.987 62.1124L176.013 61.8876C175.512 64.0557 174.5 69.2379 174.5 72.5H175.5ZM175.5 151V72.5H174.5V151H175.5ZM294.003 87L203.003 86.5L202.997 87.5L293.997 88L294.003 87ZM293.5 31V87.5H294.5V31H293.5ZM244 31.5H294V30.5H244V31.5ZM213.376 46.8293C222.776 36.0867 236.64 31.5 244 31.5V30.5C236.36 30.5 222.218 35.2056 212.624 46.1707L213.376 46.8293ZM203.5 69C203.5 62.4125 206.433 54.7645 213.376 46.8293L212.624 46.1707C205.567 54.2355 202.5 62.1083 202.5 69H203.5ZM203.5 87V69H202.5V87H203.5Z" fill="#606A8C"/>
<path d="M352.5 148.571H379.5V46.5712C409.333 77.9046 470.1 141.671 474.5 146.071C478.9 150.471 484 151.238 486 151.071C494.725 150.344 499.5 142.071 499.5 139.571V2.07123H472V104.571C442.333 73.9046 382.2 11.5712 379 7.57123C375.8 3.57123 371.667 1.2379 370 0.57123C367.833 -0.0954369 362.5 -0.72877 358.5 2.07123C354.5 4.87123 352.833 9.57123 352.5 11.5712V148.571Z" fill="#5C6689" stroke="#606A8C"/>
<path d="M29 4H0V151H29V91.5H120V151H148V4H120V63.5H29V4Z" fill="#5C6689" stroke="#606A8C"/>
</g>
<defs>
<clipPath id="clip0_615_638">
<rect width="499.5" height="151.092" fill="white"/>
</clipPath>
</defs>
</svg>
